<?xml version="1.0" encoding="UTF-8"?>
<svg xmlns="http://www.w3.org/2000/svg" xmlns:xlink="http://www.w3.org/1999/xlink" viewBox="0 0 480 480" width="480px" height="480px">
<g id="surface30047994">
<path style=" stroke:none;fill-rule:nonzero;fill:rgb(100%,100%,100%);fill-opacity:1;" d="M 430.144531 265.265625 C 431.246094 256.976562 432 248.574219 432 240 C 432 133.96875 346.03125 48 240 48 C 231.425781 48 223.023438 48.753906 214.734375 49.855469 C 196.464844 38.609375 175.023438 32 152 32 C 85.726562 32 32 85.726562 32 152 C 32 175.023438 38.609375 196.464844 49.855469 214.734375 C 48.753906 223.023438 48 231.425781 48 240 C 48 346.03125 133.96875 432 240 432 C 248.574219 432 256.976562 431.246094 265.265625 430.144531 C 283.535156 441.390625 304.976562 448 328 448 C 394.273438 448 448 394.273438 448 328 C 448 304.976562 441.390625 283.535156 430.144531 265.265625 Z M 242.382812 352 C 180.046875 352 144.257812 319.328125 144.257812 287.265625 C 144.257812 270.910156 161.375 265.679688 168.222656 265.679688 C 184.046875 265.679688 189.3125 278.59375 192.191406 284.511719 C 208.273438 317.566406 223.726562 313.214844 238.960938 314.65625 C 252.414062 315.921875 284 309.984375 284 286.910156 C 284 284.703125 287.472656 269.695312 260.207031 262.257812 C 242.785156 257.488281 212.0625 251.648438 186.785156 241.921875 C 163.007812 232.769531 149.054688 213.921875 149.054688 189.632812 C 149.054688 177.488281 155.28125 128 239.472656 128 C 295.664062 128 325.617188 156.785156 325.617188 182.113281 C 325.617188 187.9375 323.390625 193.070312 318.929688 197.695312 C 314.464844 202.320312 301.886719 209.089844 288.113281 200.273438 C 284.640625 198.046875 281.777344 193.425781 278.351562 187.425781 C 274.222656 179.886719 267.472656 165.328125 236.382812 165.328125 C 206.222656 165.328125 197.855469 179.710938 197.855469 185.710938 C 197.855469 205.871094 236.335938 210.113281 246.671875 212.785156 C 284.398438 222.511719 335.726562 231.457031 335.726562 282.320312 C 335.726562 340.71875 274.960938 352 242.382812 352 Z M 242.382812 352 "/>
</g>
</svg>
